<svg width="1000" height="200" xmlns="http://www.w3.org/2000/svg" xmlns:xlink="http://www.w3.org/1999/xlink" viewBox="0 0 500 100"><mask id="crop"><path d="M0,0 h500 v72 q0,28 -28,28 h-472 z" fill="white"/></mask><defs><filter y="-5" height="52" id="blur" color-interpolation-filters="sRGB"><feDropShadow dx="0" dy="2" stdDeviation="12" flood-color="#148CC0" flood-opacity="0.5"/></filter></defs><g mask="url(#crop)" ><svg x="0" y="0" xmlns="http://www.w3.org/2000/svg" xmlns:xlink="http://www.w3.org/1999/xlink" viewBox="0 0 500 100">
  <defs>
    <path id="reuse-0" fill="url(#c)" d="M0 30.76 57.6 0l57.6 30.76v70.984l-57.6 31.943L0 101.744Z" />
    <path id="reuse-1" fill="url(#d)" d="M0 30.76 57.6 0l57.6 30.76v70.984l-57.6 31.943L0 101.744Z" />
    <path id="reuse-2" fill="url(#e)" d="M0 31.943 57.6 0v70.984L0 102.927Z" />
    <path id="reuse-3" fill="url(#f)" d="m0 0 57.6 39.041L0 70.984Z" />
    <path id="reuse-4" fill="url(#g)" d="M0 31.943-57.6 0v70.984L0 102.927Z" />
    <path id="reuse-5" fill="url(#g)" d="m0 0-57.6 39.041L0 70.984Z" />
    <path id="reuse-6" fill="url(#c)" d="M0 30.421 56.751 0 113.5 30.421v70.2l-56.749 31.592L0 100.622Z" />
    <path id="reuse-7" fill="url(#d)" d="M0 30.421 56.751 0 113.5 30.421v70.2l-56.749 31.592L0 100.622Z" />
    <path id="reuse-8" fill="url(#e)" d="M0 31.591 56.751 0v70.2L0 101.792Z" />
    <path id="reuse-9" fill="url(#f)" d="m0 0 56.751 38.611L0 70.2Z" />
    <path id="reuse-10" fill="url(#g)" d="M0 31.591-56.751 0v70.2L0 101.792Z" />
    <path id="reuse-11" fill="url(#g)" d="m0 0-56.751 38.611L0 70.2Z" />
  </defs>
  <defs>
    <linearGradient id="c" x1=".5" x2=".5" y2="1" gradientUnits="objectBoundingBox">
      <stop offset="0" stop-color="#fff" />
      <stop offset="1" stop-color="#f7fbff" />
    </linearGradient>
    <linearGradient id="d" x1=".5" x2=".5" y2="1" gradientUnits="objectBoundingBox">
      <stop offset="0" stop-color="#d0deea" />
      <stop offset="1" stop-color="#dae1e8" />
    </linearGradient>
    <linearGradient id="e" x1=".5" x2=".5" y2="1" gradientUnits="objectBoundingBox">
      <stop offset="0" stop-color="#bdc2c8" />
      <stop offset="1" stop-color="#dcedef" />
    </linearGradient>
    <linearGradient id="f" x1=".5" x2=".5" y2="1" gradientUnits="objectBoundingBox">
      <stop offset="0" stop-color="#adbbca" stop-opacity=".702" />
      <stop offset="1" stop-color="#e4e8e9" stop-opacity="0" />
    </linearGradient>
    <linearGradient id="g" x1=".5" x2=".5" y2="1" gradientUnits="objectBoundingBox">
      <stop offset="0" stop-color="#7692ae" />
      <stop offset="1" stop-color="#93b0ce" />
    </linearGradient>
    <radialGradient id="b" cx="-.061" cy="-.082" r="1.895" gradientUnits="objectBoundingBox">
      <stop offset="0" stop-color="#002c69" />
      <stop offset=".748" stop-color="#20569a" />
      <stop offset="1" stop-color="#28abd8" />
    </radialGradient>
    <clipPath id="a">
      <path d="M0 0h500v100H0z" />
    </clipPath>
  </defs>
  <g clip-path="url(#a)">
    <path fill="url(#b)" d="M0 0h502v150H0z" transform="translate(0 -3)" />
    <g opacity=".3" style="mix-blend-mode: color-burn; isolation: isolate">
      <g>
        <g>
          <use xlink:href="#reuse-0" transform="translate(115.645 -71.225)" />
          <g opacity=".237">
            <g>
              <use xlink:href="#reuse-1" transform="translate(115.645 -71.225)" />
              <use xlink:href="#reuse-2" transform="translate(173.246 -40.465)" />
              <use xlink:href="#reuse-2" transform="translate(173.246 -40.465)" />
              <use xlink:href="#reuse-3" transform="translate(173.246 -8.522)" />
              <use xlink:href="#reuse-4" transform="translate(173.246 -40.465)" />
              <use xlink:href="#reuse-5" transform="translate(173.246 -8.522)" />
            </g>
          </g>
        </g>
        <g>
          <use xlink:href="#reuse-0" transform="translate(170.686 -40.374)" />
          <g opacity=".237">
            <g>
              <use xlink:href="#reuse-1" transform="translate(170.686 -40.374)" />
              <use xlink:href="#reuse-2" transform="translate(228.287 -9.614)" />
              <use xlink:href="#reuse-2" transform="translate(228.287 -9.614)" />
              <use xlink:href="#reuse-3" transform="translate(228.287 22.329)" />
              <use xlink:href="#reuse-4" transform="translate(228.287 -9.614)" />
              <use xlink:href="#reuse-5" transform="translate(228.287 22.329)" />
            </g>
          </g>
        </g>
        <g>
          <use xlink:href="#reuse-0" transform="translate(228.287 -8.517)" />
          <g opacity=".237">
            <g>
              <use xlink:href="#reuse-1" transform="translate(228.287 -8.517)" />
              <use xlink:href="#reuse-2" transform="translate(285.888 22.243)" />
              <use xlink:href="#reuse-2" transform="translate(285.888 22.243)" />
              <use xlink:href="#reuse-3" transform="translate(285.888 54.186)" />
              <use xlink:href="#reuse-4" transform="translate(285.888 22.243)" />
              <use xlink:href="#reuse-5" transform="translate(285.888 54.186)" />
            </g>
          </g>
        </g>
        <g>
          <use xlink:href="#reuse-0" transform="translate(170.686 93.313)" />
          <g opacity=".237">
            <g>
              <use xlink:href="#reuse-1" transform="translate(170.686 93.313)" />
              <use xlink:href="#reuse-2" transform="translate(228.287 124.073)" />
              <use xlink:href="#reuse-2" transform="translate(228.287 124.073)" />
              <use xlink:href="#reuse-3" transform="translate(228.287 156.016)" />
              <use xlink:href="#reuse-4" transform="translate(228.287 124.073)" />
              <use xlink:href="#reuse-5" transform="translate(228.287 156.016)" />
            </g>
          </g>
        </g>
        <g>
          <use xlink:href="#reuse-0" transform="translate(0 -.822)" />
          <g opacity=".237">
            <g>
              <use xlink:href="#reuse-1" transform="translate(0 -.822)" />
              <use xlink:href="#reuse-2" transform="translate(57.601 29.938)" />
              <use xlink:href="#reuse-2" transform="translate(57.601 29.938)" />
              <use xlink:href="#reuse-3" transform="translate(57.601 61.881)" />
              <use xlink:href="#reuse-4" transform="translate(57.601 29.938)" />
              <use xlink:href="#reuse-5" transform="translate(57.601 61.881)" />
            </g>
          </g>
        </g>
      </g>
      <g>
        <use xlink:href="#reuse-6" transform="translate(341.499 -9.592)" />
        <g opacity=".237">
          <g>
            <use xlink:href="#reuse-7" transform="translate(341.499 -9.592)" />
            <use xlink:href="#reuse-8" transform="translate(398.25 20.829)" />
            <use xlink:href="#reuse-8" transform="translate(398.25 20.829)" />
            <use xlink:href="#reuse-9" transform="translate(398.25 52.419)" />
            <use xlink:href="#reuse-10" transform="translate(398.25 20.829)" />
            <use xlink:href="#reuse-11" transform="translate(398.25 52.419)" />
          </g>
        </g>
      </g>
      <g>
        <use xlink:href="#reuse-6" transform="translate(284.748 -109)" />
        <g opacity=".237">
          <g>
            <use xlink:href="#reuse-7" transform="translate(284.748 -109)" />
            <use xlink:href="#reuse-8" transform="translate(341.499 -78.579)" />
            <use xlink:href="#reuse-8" transform="translate(341.499 -78.579)" />
            <use xlink:href="#reuse-9" transform="translate(341.499 -46.989)" />
            <use xlink:href="#reuse-10" transform="translate(341.499 -78.579)" />
            <use xlink:href="#reuse-11" transform="translate(341.499 -46.989)" />
          </g>
        </g>
      </g>
    </g>
  </g>
</svg><svg width="182.53" height="41.12" x="48.5" y="29.44" xmlns="http://www.w3.org/2000/svg" viewBox="0 0 182.53 41.12">
  <defs>
    <linearGradient id="logo-a" x1="-.061" x2=".914" y1="2.499" y2="1.52" gradientUnits="objectBoundingBox">
      <stop offset=".1" stop-color="#76b3e1" />
      <stop offset=".3" stop-color="#dcf2fd" />
      <stop offset="1" stop-color="#76b3e1" />
    </linearGradient>
    <linearGradient id="logo-b" x1=".571" x2=".381" y1="1.757" y2=".412" gradientUnits="objectBoundingBox">
      <stop offset="0" stop-color="#76b3e1" />
      <stop offset=".5" stop-color="#4377bb" />
      <stop offset="1" stop-color="#1f3b77" />
    </linearGradient>
    <linearGradient id="logo-c" x1=".107" x2="1.045" y1=".443" y2="-.683" gradientUnits="objectBoundingBox">
      <stop offset="0" stop-color="#315aa9" />
      <stop offset=".5" stop-color="#518ac8" />
      <stop offset="1" stop-color="#315aa9" />
    </linearGradient>
    <linearGradient id="logo-d" x1=".621" x2=".178" y1="-.213" y2="-3.668" gradientUnits="objectBoundingBox">
      <stop offset="0" stop-color="#4377bb" />
      <stop offset=".5" stop-color="#1a336b" />
      <stop offset="1" stop-color="#1a336b" />
    </linearGradient>
  </defs>
  <path fill="#76b3e1" d="M44.082 8.847S29.47-2.187 18.131.39l-1 .275a7.233 7.233 0 0 0-3.854 2.706 6.547 6.547 0 0 0-.416.691l-4.182 7.116 7.233 1.411a12.884 12.884 0 0 0 10.313 2.026l12.884 2.519Z" />
  <path fill="url(#logo-a)" d="M50.763 9.091S36.151-1.943 24.812.634l-1 .275a7.233 7.233 0 0 0-3.854 2.706 6.547 6.547 0 0 0-.416.691l-4.182 7.116 7.233 1.411a12.884 12.884 0 0 0 10.313 2.026l12.884 2.519Z" opacity=".3" style="isolation:isolate" transform="translate(-6.681 -.244)" />
  <path fill="#518ac8" d="m13.154 8.706-1 .281c-4.627 1.493-6.208 5.821-3.549 9.616a12.369 12.369 0 0 0 13.2 4.158l17.288-5.628S24.51 6.13 13.154 8.706Z" />
  <path fill="url(#logo-b)" d="m18.868 14.833-1 .281c-4.627 1.493-6.208 5.821-3.549 9.616a12.369 12.369 0 0 0 13.2 4.158l17.288-5.628s-14.583-11.003-25.939-8.427Z" opacity=".3" style="isolation:isolate" transform="translate(-5.714 -6.127)" />
  <path fill="url(#logo-c)" d="M36.47 33.094a12.363 12.363 0 0 0-13.224-4.187l-17.271 5.6L.54 44.181l30.94 5.271 5.546-9.868a5.867 5.867 0 0 0-.556-6.49Z" transform="translate(-.54 -11.908)" />
  <path fill="url(#logo-d)" d="M31.035 49.621a12.381 12.381 0 0 0-13.195-4.187l-17.3 5.6s14.641 11.034 25.95 8.457l1-.275c4.632-1.47 6.214-5.8 3.549-9.593Z" transform="translate(-.54 -18.76)" />
  <g fill="#fff">
    <!-- <text font-family="Gordita-Regular, Gordita" font-size="12" letter-spacing=".03em" transform="translate(57.665 37.12)">
      <tspan x="0" y="0">$CONTEXT</tspan>
    </text> -->
    <path d="M58.782 16.494a6.18 6.18 0 0 0 4.168 1.751c1.751 0 3.193-1.03 3.193-2.781 0-4.017-7.982-3.038-7.982-7.982 0-2.317 2.06-4.274 5-4.274a6.18 6.18 0 0 1 4.274 1.545l-.778 1.339a5.346 5.346 0 0 0-3.5-1.39 3.116 3.116 0 0 0-3.4 2.729c0 3.811 7.982 2.729 7.982 7.982 0 2.369-1.854 4.326-4.841 4.326a6.88 6.88 0 0 1-5.047-2.06ZM84.068 3.31a8.1 8.1 0 0 1 8.137 8.188 8.24 8.24 0 0 1-8.137 8.343h-.051a8.24 8.24 0 0 1-8.137-8.343v-.051a8.1 8.1 0 0 1 8.188-8.137Zm-.051 15.089a6.7 6.7 0 0 0 6.54-6.844v-.057a6.517 6.517 0 1 0-13.029-.051 6.7 6.7 0 0 0 6.488 6.952Zm17.458-14.78h1.545l-.052 14.574h7.416v1.39h-9.012Zm17.458.051h1.545l-.052 16.016h-1.546Zm11.948 0h5.15c4.789 0 8.034 2.935 8.034 8.034s-3.244 7.982-8.034 7.982h-5.15Zm4.944 14.625c3.914 0 6.54-2.317 6.592-6.592s-2.626-6.592-6.54-6.592h-3.45l-.051 13.183Zm21.717 1.39a5.289 5.289 0 0 0 3.636-1.3 4.635 4.635 0 0 0 1.473-3.656V3.861h-3.221v10.635a2.163 2.163 0 0 1-.515 1.545 1.859 1.859 0 0 1-1.426.551 2.343 2.343 0 0 1-2.209-1.777l-2.73 1.519a4.937 4.937 0 0 0 4.985 3.353Zm19.291.036a6.105 6.105 0 0 0 4.192-1.334 4.434 4.434 0 0 0 1.5-3.5 3.651 3.651 0 0 0-1.287-2.92 11.266 11.266 0 0 0-4.156-1.926 6.056 6.056 0 0 1-1.936-.809 1.323 1.323 0 0 1-.567-1.107 1.39 1.39 0 0 1 .567-1.159 2.369 2.369 0 0 1 1.5-.438 2.92 2.92 0 0 1 2.941 1.916l2.662-1.457a5.175 5.175 0 0 0-2.1-2.493 6.267 6.267 0 0 0-3.363-.881 5.721 5.721 0 0 0-3.836 1.345 4.177 4.177 0 0 0-1.591 3.373 3.863 3.863 0 0 0 1.195 2.889 9.13 9.13 0 0 0 3.8 1.9 8.5 8.5 0 0 1 2.328.937 1.2 1.2 0 0 1 .613 1.076 1.411 1.411 0 0 1-.664 1.19 2.9 2.9 0 0 1-1.7.469 3.6 3.6 0 0 1-3.4-2.178l-2.781 1.437a5.588 5.588 0 0 0 2.312 2.693 7.076 7.076 0 0 0 3.769.979Z" />
  </g>
</svg><path d="M115.77 61.68L115.77 61.68Q115.77 59.90 114.49 58.81L114.49 58.81Q113.25 57.70 111.43 57.70L111.43 57.70Q109.45 57.70 108.00 59.16L108.00 59.16Q106.57 60.60 106.57 62.62L106.57 62.62Q106.57 64.68 107.93 66.02L107.93 66.02Q109.30 67.35 111.36 67.35L111.36 67.35Q112.95 67.35 114.28 66.40L114.28 66.40L114.69 67.04Q114.07 67.53 113.12 67.83L113.12 67.83Q112.20 68.13 111.36 68.13L111.36 68.13Q108.96 68.13 107.37 66.58L107.37 66.58Q105.78 65.00 105.78 62.62L105.78 62.62Q105.78 60.27 107.44 58.61L107.44 58.61Q109.10 56.93 111.43 56.93L111.43 56.93Q113.54 56.93 115.04 58.26L115.04 58.26Q116.54 59.59 116.54 61.68L116.54 61.68Q116.54 62.59 116.13 63.56L116.13 63.56Q115.72 64.49 114.95 64.93L114.95 64.93Q114.35 65.28 113.79 65.28L113.79 65.28Q113.32 65.28 112.96 65.00Q112.60 64.72 112.46 64.27L112.46 64.27Q111.71 65.28 110.50 65.28L110.50 65.28Q109.61 65.28 108.95 64.56L108.95 64.56Q108.29 63.82 108.29 62.93L108.29 62.93Q108.29 61.72 109.07 60.77L109.07 60.77Q109.87 59.83 111.08 59.83L111.08 59.83Q111.61 59.83 112.08 60.10Q112.55 60.38 112.78 60.85L112.78 60.85L112.94 59.87L113.96 59.87L113.39 63.37Q113.37 63.51 113.38 63.75Q113.39 63.99 113.51 64.18Q113.64 64.37 114.00 64.37L114.00 64.37Q114.56 64.37 114.95 63.89L114.95 63.89Q115.37 63.40 115.57 62.81Q115.77 62.23 115.77 61.68ZM111.20 60.70L111.20 60.70Q110.38 60.70 109.83 61.36L109.83 61.36Q109.30 62.02 109.30 62.84L109.30 62.84Q109.30 63.49 109.70 63.94Q110.10 64.40 110.73 64.40L110.73 64.40Q111.54 64.40 112.06 63.71L112.06 63.71Q112.59 63.01 112.59 62.18L112.59 62.18Q112.59 61.55 112.20 61.13Q111.82 60.70 111.20 60.70ZM119.04 55.59L120.15 55.59L120.15 67L119.04 67L119.04 55.59ZM123.05 56.85L123.05 56.85Q123.05 56.50 123.28 56.26Q123.52 56.02 123.86 56.02L123.86 56.02Q124.21 56.02 124.45 56.26Q124.68 56.50 124.68 56.85L124.68 56.85Q124.68 57.19 124.45 57.42Q124.21 57.66 123.86 57.66L123.86 57.66Q123.52 57.66 123.28 57.42Q123.05 57.19 123.05 56.85ZM123.31 59.52L124.42 59.52L124.42 67L123.31 67L123.31 59.52ZM133.45 67.07L133.45 67.07L133.45 65.33Q132.43 67.03 130.55 67.03L130.55 67.03Q128.98 67.03 128.02 65.92L128.02 65.92Q127.05 64.80 127.05 63.22L127.05 63.22Q127.05 61.69 128.03 60.55L128.03 60.55Q129.01 59.40 130.55 59.40L130.55 59.40Q132.33 59.40 133.46 61.09L133.46 61.09L133.46 59.52L134.54 59.52L134.54 67.03Q134.54 68.81 133.53 69.77Q132.52 70.74 130.79 70.74L130.79 70.74Q128.16 70.74 127.09 68.33L127.09 68.33L127.97 67.81Q128.16 68.20 128.34 68.48Q128.53 68.75 128.86 69.09L128.86 69.09Q129.53 69.79 130.77 69.79L130.77 69.79Q131.95 69.79 132.70 69.11Q133.45 68.44 133.45 67.07ZM130.77 66.08L130.77 66.08Q131.94 66.08 132.69 65.24L132.69 65.24Q133.46 64.38 133.46 63.21L133.46 63.21Q133.46 62.09 132.68 61.22L132.68 61.22Q131.91 60.36 130.77 60.36L130.77 60.36Q129.57 60.36 128.87 61.19L128.87 61.19Q128.17 62.02 128.17 63.25L128.17 63.25Q128.17 64.44 128.87 65.26L128.87 65.26Q129.58 66.08 130.77 66.08ZM144.19 62.38L144.19 67L143.09 67L143.09 62.65Q143.09 61.61 142.56 60.99Q142.03 60.38 141.02 60.38L141.02 60.38Q140.06 60.38 139.43 61.06L139.43 61.06Q138.80 61.74 138.80 62.74L138.80 62.74L138.80 67L137.70 67L137.70 55.60L138.80 55.60L138.80 60.87Q139.69 59.38 141.36 59.38L141.36 59.38Q142.70 59.38 143.44 60.21Q144.19 61.04 144.19 62.38L144.19 62.38ZM149.87 67.06L149.87 67.06Q147.76 67.06 147.76 65.07L147.76 65.07L147.76 60.49L146.37 60.49L146.37 59.52L147.76 59.52L147.76 57.37L148.83 57.37L148.83 59.52L150.72 59.52L150.72 60.49L148.83 60.49L148.83 65.04Q148.83 66.09 150.05 66.09L150.05 66.09Q150.51 66.09 150.72 66.03L150.72 66.03L150.72 66.94Q150.35 67.06 149.87 67.06ZM159.75 62.38L159.75 67L158.66 67L158.66 62.65Q158.66 61.61 158.13 60.99Q157.60 60.38 156.59 60.38L156.59 60.38Q155.62 60.38 154.99 61.06L154.99 61.06Q154.36 61.74 154.36 62.74L154.36 62.74L154.36 67L153.27 67L153.27 59.52L154.35 59.52L154.35 60.90Q155.23 59.38 156.93 59.38L156.93 59.38Q158.27 59.38 159.01 60.21Q159.75 61.04 159.75 62.38L159.75 62.38ZM162.55 56.85L162.55 56.85Q162.55 56.50 162.79 56.26Q163.03 56.02 163.37 56.02L163.37 56.02Q163.72 56.02 163.95 56.26Q164.19 56.50 164.19 56.85L164.19 56.85Q164.19 57.19 163.95 57.42Q163.72 57.66 163.37 57.66L163.37 57.66Q163.03 57.66 162.79 57.42Q162.55 57.19 162.55 56.85ZM162.82 59.52L163.93 59.52L163.93 67L162.82 67L162.82 59.52ZM173.57 62.38L173.57 67L172.48 67L172.48 62.65Q172.48 61.61 171.95 60.99Q171.42 60.38 170.41 60.38L170.41 60.38Q169.44 60.38 168.81 61.06L168.81 61.06Q168.18 61.74 168.18 62.74L168.18 62.74L168.18 67L167.09 67L167.09 59.52L168.17 59.52L168.17 60.90Q169.05 59.38 170.74 59.38L170.74 59.38Q172.09 59.38 172.83 60.21Q173.57 61.04 173.57 62.38L173.57 62.38ZM182.50 67.07L182.50 67.07L182.50 65.33Q181.48 67.03 179.61 67.03L179.61 67.03Q178.04 67.03 177.07 65.92L177.07 65.92Q176.11 64.80 176.11 63.22L176.11 63.22Q176.11 61.69 177.09 60.55L177.09 60.55Q178.07 59.40 179.61 59.40L179.61 59.40Q181.38 59.40 182.52 61.09L182.52 61.09L182.52 59.52L183.60 59.52L183.60 67.03Q183.60 68.81 182.59 69.77Q181.58 70.74 179.84 70.74L179.84 70.74Q177.21 70.74 176.15 68.33L176.15 68.33L177.03 67.81Q177.21 68.20 177.40 68.48Q177.59 68.75 177.91 69.09L177.91 69.09Q178.58 69.79 179.83 69.79L179.83 69.79Q181.01 69.79 181.75 69.11Q182.50 68.44 182.50 67.07ZM179.83 66.08L179.83 66.08Q180.99 66.08 181.75 65.24L181.75 65.24Q182.52 64.38 182.52 63.21L182.52 63.21Q182.52 62.09 181.73 61.22L181.73 61.22Q180.96 60.36 179.83 60.36L179.83 60.36Q178.63 60.36 177.93 61.19L177.93 61.19Q177.23 62.02 177.23 63.25L177.23 63.25Q177.23 64.44 177.93 65.26L177.93 65.26Q178.64 66.08 179.83 66.08ZM189.38 67.06L189.38 67.06Q187.26 67.06 187.26 65.07L187.26 65.07L187.26 60.49L185.88 60.49L185.88 59.52L187.26 59.52L187.26 57.37L188.34 57.37L188.34 59.52L190.23 59.52L190.23 60.49L188.34 60.49L188.34 65.04Q188.34 66.09 189.56 66.09L189.56 66.09Q190.02 66.09 190.23 66.03L190.23 66.03L190.23 66.94Q189.85 67.06 189.38 67.06ZM195.05 67L191.87 59.52L193.07 59.52L195.64 65.80L198.24 59.52L199.40 59.52L196.21 67L195.05 67ZM200.91 67.07L205.69 55.60L206.84 55.60L202.06 67.07L200.91 67.07ZM214.20 64.87L214.20 64.87Q214.20 65.85 213.43 66.50L213.43 66.50Q212.67 67.13 211.51 67.13L211.51 67.13Q209.45 67.13 208.59 65.19L208.59 65.19L209.48 64.70Q210.18 66.16 211.50 66.16L211.50 66.16Q212.14 66.16 212.62 65.83Q213.09 65.50 213.09 64.94L213.09 64.94Q213.09 64.47 212.67 64.19Q212.24 63.91 211.22 63.67L211.22 63.67Q210.45 63.50 210.01 63.30Q209.58 63.09 209.27 62.74L209.27 62.74Q208.87 62.25 208.87 61.62L208.87 61.62Q208.87 60.66 209.66 60.03L209.66 60.03Q210.46 59.40 211.47 59.40L211.47 59.40Q213.36 59.40 214.12 61.13L214.12 61.13L213.22 61.62Q212.63 60.36 211.47 60.36L211.47 60.36Q210.84 60.36 210.41 60.71L210.41 60.71Q209.96 61.08 209.96 61.54L209.96 61.54Q209.96 61.85 210.10 62.06Q210.25 62.27 210.64 62.41Q211.02 62.56 211.71 62.72L211.71 62.72Q213.07 63.01 213.67 63.64L213.67 63.64Q214.20 64.17 214.20 64.87ZM220.15 67.13L220.15 67.13Q218.53 67.13 217.41 66.01L217.41 66.01Q216.30 64.90 216.30 63.29L216.30 63.29Q216.30 61.62 217.41 60.52L217.41 60.52Q218.53 59.40 220.18 59.40L220.18 59.40Q221.79 59.40 222.91 60.52L222.91 60.52Q224.03 61.64 224.03 63.23L224.03 63.23Q224.03 64.89 222.91 66.01L222.91 66.01Q221.79 67.13 220.15 67.13ZM220.18 66.16L220.18 66.16Q221.35 66.16 222.12 65.32L222.12 65.32Q222.91 64.47 222.91 63.29L222.91 63.29Q222.91 62.09 222.12 61.22L222.12 61.22Q221.34 60.35 220.15 60.35L220.15 60.35Q218.97 60.35 218.19 61.19L218.19 61.19Q217.42 62.02 217.42 63.23L217.42 63.23Q217.42 64.45 218.19 65.31L218.19 65.31Q218.96 66.16 220.18 66.16ZM226.65 55.59L227.75 55.59L227.75 67L226.65 67L226.65 55.59ZM230.65 56.85L230.65 56.85Q230.65 56.50 230.89 56.26Q231.13 56.02 231.46 56.02L231.46 56.02Q231.81 56.02 232.05 56.26Q232.29 56.50 232.29 56.85L232.29 56.85Q232.29 57.19 232.05 57.42Q231.81 57.66 231.46 57.66L231.46 57.66Q231.13 57.66 230.89 57.42Q230.65 57.19 230.65 56.85ZM230.92 59.52L232.02 59.52L232.02 67L230.92 67L230.92 59.52ZM234.65 63.25L234.65 63.25Q234.65 61.71 235.63 60.56L235.63 60.56Q236.63 59.40 238.15 59.40L238.15 59.40Q239.90 59.40 241.05 61.09L241.05 61.09L241.05 55.60L242.13 55.60L242.13 67L241.07 67L241.07 65.40Q240.03 67.11 238.15 67.11L238.15 67.11Q236.61 67.11 235.62 65.98L235.62 65.98Q234.65 64.84 234.65 63.25ZM238.38 66.15L238.38 66.15Q239.54 66.15 240.30 65.29L240.30 65.29Q241.07 64.44 241.07 63.23L241.07 63.23Q241.07 62.10 240.28 61.23L240.28 61.23Q239.50 60.36 238.38 60.36L238.38 60.36Q237.19 60.36 236.47 61.20L236.47 61.20Q235.76 62.02 235.76 63.28L235.76 63.28Q235.76 64.48 236.47 65.32L236.47 65.32Q237.19 66.15 238.38 66.15Z" fill="#fff"/><path d="M401.4,72 h98.60000000000001 v28 h-98.60000000000001 q0,-28 28,-28 z" fill="#0E478C" filter="url(#blur)" /><path d="M426.31 90L426.31 82.17L427.92 82.17L427.92 88.46L431.27 88.46L431.27 90L426.31 90ZM432.85 82.17L434.47 82.17L434.47 90L432.85 90L432.85 82.17ZM442.89 87.84L442.89 87.84Q442.89 88.44 442.65 88.85Q442.41 89.26 442.01 89.52Q441.61 89.77 441.11 89.89Q440.61 90 440.10 90L440.10 90L436.80 90L436.80 82.17L440.05 82.17Q441.08 82.17 441.81 82.71L441.81 82.71Q442.55 83.25 442.55 84.24L442.55 84.24Q442.55 85.34 441.45 85.91L441.45 85.91L441.45 85.93Q442.18 86.20 442.53 86.64Q442.89 87.09 442.89 87.84ZM440.96 84.49L440.96 84.49Q440.96 84.04 440.63 83.85Q440.31 83.66 439.83 83.66L439.83 83.66L438.38 83.66L438.38 85.35L439.72 85.35Q440.96 85.35 440.96 84.49ZM441.31 87.63L441.31 87.63Q441.31 86.75 440.03 86.75L440.03 86.75L438.38 86.75L438.38 88.50L440.08 88.50Q441.31 88.50 441.31 87.63ZM448.99 86.94L450.76 90L448.96 90L447.34 87.19L446.36 87.19L446.36 90L444.74 90L444.74 82.17L447.83 82.17Q449.02 82.17 449.81 82.82L449.81 82.82Q450.60 83.46 450.60 84.65L450.60 84.65Q450.60 86.35 448.99 86.94L448.99 86.94ZM447.70 83.70L446.36 83.70L446.36 85.69L447.71 85.69Q448.22 85.69 448.59 85.44Q448.96 85.19 448.96 84.68L448.96 84.68Q448.96 84.16 448.59 83.93Q448.23 83.70 447.70 83.70L447.70 83.70ZM453.84 88.42L453.26 90L451.63 90L454.62 82.17L456.57 82.17L459.57 90L457.90 90L457.31 88.42L453.84 88.42ZM456.76 86.92L455.58 83.74L454.40 86.92L456.76 86.92ZM465.22 86.94L466.99 90L465.19 90L463.57 87.19L462.59 87.19L462.59 90L460.97 90L460.97 82.17L464.06 82.17Q465.25 82.17 466.04 82.82L466.04 82.82Q466.83 83.46 466.83 84.65L466.83 84.65Q466.83 86.35 465.22 86.94L465.22 86.94ZM463.93 83.70L462.59 83.70L462.59 85.69L463.94 85.69Q464.45 85.69 464.82 85.44Q465.19 85.19 465.19 84.68L465.19 84.68Q465.19 84.16 464.82 83.93Q464.46 83.70 463.93 83.70L463.93 83.70ZM472.50 90L470.88 90L470.88 86.90L468.01 82.17L469.88 82.17L471.69 85.30L473.52 82.17L475.37 82.17L472.50 86.83L472.50 90Z" fill="#fff"/></g></svg>